<svg id="bell" xmlns="http://www.w3.org/2000/svg" width="17.207" height="19.227" viewBox="0 0 17.207 19.227">
  <path id="Path_8" data-name="Path 8" d="M368.709,31.553a.594.594,0,0,1-.587-.6,8.664,8.664,0,0,0-2.462-6.09.611.611,0,0,1,0-.85.577.577,0,0,1,.83,0,9.875,9.875,0,0,1,2.805,6.94A.594.594,0,0,1,368.709,31.553Zm0,0" transform="translate(-352.089 -22.941)" fill="#3b4a6e"/>
  <path id="Path_9" data-name="Path 9" d="M.587,31.572a.594.594,0,0,1-.587-.6,9.869,9.869,0,0,1,2.806-6.939.577.577,0,0,1,.83,0,.612.612,0,0,1,0,.85,8.658,8.658,0,0,0-2.463,6.089A.594.594,0,0,1,.587,31.572Zm0,0" transform="translate(0 -22.96)" fill="#3b4a6e"/>
  <path id="Path_10" data-name="Path 10" d="M157.6,419.605a2.972,2.972,0,0,1-2.933-3,.587.587,0,1,1,1.173,0,1.76,1.76,0,1,0,3.52,0,.587.587,0,1,1,1.173,0A2.972,2.972,0,0,1,157.6,419.605Zm0,0" transform="translate(-148.997 -400.378)" fill="#3b4a6e"/>
  <path id="Path_11" data-name="Path 11" d="M35.606,78.421H22.7a1.387,1.387,0,0,1-1.369-1.4,1.415,1.415,0,0,1,.479-1.066,5.423,5.423,0,0,0,1.868-4.111V69.608a5.477,5.477,0,1,1,10.95,0v2.234a5.422,5.422,0,0,0,1.86,4.106,1.416,1.416,0,0,1,.486,1.071A1.387,1.387,0,0,1,35.606,78.421ZM29.153,65.2a4.36,4.36,0,0,0-4.3,4.406v2.234a6.632,6.632,0,0,1-2.276,5.023.2.2,0,0,0,.125.354H35.606a.2.2,0,0,0,.127-.353,6.634,6.634,0,0,1-2.278-5.025V69.608A4.36,4.36,0,0,0,29.153,65.2Zm0,0" transform="translate(-20.55 -61.597)" fill="#3b4a6e"/>
  <path id="Path_12" data-name="Path 12" d="M219.255,3.605a.594.594,0,0,1-.587-.6V.6a.587.587,0,1,1,1.173,0V3A.594.594,0,0,1,219.255,3.605Zm0,0" transform="translate(-210.651)" fill="#3b4a6e"/>
</svg>
