<svg id="lock-password-line" xmlns="http://www.w3.org/2000/svg" width="21.202" height="21.202" viewBox="0 0 21.202 21.202">
  <path id="Path_8655" data-name="Path 8655" d="M0,0H21.2V21.2H0Z" fill="none"/>
  <path id="Path_8656" data-name="Path 8656" d="M16.251,7.184h1.767a.883.883,0,0,1,.883.883v10.6a.883.883,0,0,1-.883.883H3.883A.883.883,0,0,1,3,18.668V8.067a.883.883,0,0,1,.883-.883H5.65V6.3a5.3,5.3,0,1,1,10.6,0ZM4.767,8.951v8.834H17.135V8.951Zm5.3,3.534h1.767v1.767H10.067Zm-3.534,0H8.3v1.767H6.534Zm7.067,0h1.767v1.767H13.6Zm.883-5.3V6.3a3.534,3.534,0,1,0-7.067,0v.883Z" transform="translate(-0.35 -0.117)" fill="#797b8b"/>
</svg>
